<?xml version="1.0" encoding="utf-8"?>
<!-- Svg Vector Icons : http://www.onlinewebfonts.com/icon -->
<!DOCTYPE svg PUBLIC "-//W3C//DTD SVG 1.1//EN" "http://www.w3.org/Graphics/SVG/1.1/DTD/svg11.dtd">
<svg version="1.1" xmlns="http://www.w3.org/2000/svg" xmlns:xlink="http://www.w3.org/1999/xlink" x="0px" y="0px" viewBox="0 0 1000 1000" enable-background="new 0 0 1000 1000" xml:space="preserve">
<metadata> Svg Vector Icons : http://www.onlinewebfonts.com/icon </metadata>
<g><path d="M559.3,640.4h292.4c9.6,0,17.3-8,17.3-17.8s-7.8-17.9-17.3-17.9H559.3c-9.6,0-17.3,8-17.3,17.9S549.8,640.4,559.3,640.4L559.3,640.4z M559.3,517.8h292.4c9.6,0,17.3-8,17.3-17.9c0-9.9-7.8-17.9-17.3-17.9H559.3c-9.6,0-17.3,8-17.3,17.9C542,509.8,549.8,517.8,559.3,517.8L559.3,517.8z M559.3,395.1h292.4c9.6,0,17.3-8,17.3-17.9s-7.8-17.9-17.3-17.9H559.3c-9.6,0-17.3,8-17.3,17.9S549.8,395.1,559.3,395.1L559.3,395.1z M972.7,132.1H27.3c-9.6,0-17.3,8-17.3,17.9v700.2c0,9.9,7.7,17.9,17.3,17.9h945.4c9.6,0,17.3-8,17.3-17.9V149.9C990,140.1,982.2,132.1,972.7,132.1L972.7,132.1z M44.6,167.8h910.7v664.5H44.6V167.8z M132.4,738.8c1.3,0.3,2.6,0.4,3.8,0.4c7.9,0,15-5.6,16.8-13.9c10.8-49.1,33-128.4,44.8-145.9c21.2-31.5,58.5-30.9,60.4-30.8l52.8-0.1c0.4,0,48.7-5.1,69.9,31.9c0.4,0.7,0.9,1.4,1.3,2c12.8,16.7,36.7,97.1,46.9,143c2.1,9.6,11.5,15.6,20.8,13.4c9.3-2.2,15.1-11.8,13-21.4c-5.4-24.1-31.4-126.7-52.8-156.2c-32.7-55.5-100.1-48.5-101.1-48.3H301c60.2-8.2,107.1-61,107.1-125.3c0-70-55.2-126.9-123.1-126.9c-67.9,0-123,56.9-123,126.9c0,64.3,46.7,117.1,107,125.3H259c-2.3,0-57.3-1.6-89.5,46.2c-19,28.2-44.4,132.1-50.2,158.4C117.3,727.1,123.1,736.7,132.4,738.8L132.4,738.8z M196.5,387.6c0-50.3,39.6-91.2,88.4-91.2c48.8,0,88.5,40.9,88.5,91.2c0,50.3-39.7,91.3-88.5,91.3C236.1,478.8,196.5,437.9,196.5,387.6L196.5,387.6z"/></g>
</svg>